{"title":"The Conformist (1970) 1080p BRrip_sujaidr","uid":7108735,"size":1580796412,"categoryP":"video","categoryS":"hd___movies","magnet":"?xt=urn:btih:4a3eec5df5e99fad13e34e6604a992bdb2567b88&amp;dn=The+Conformist+%281970%29+1080p+BRrip_sujaidr&amp;tr=udp%3A%2F%2Ftracker.openbittorrent.com%3A80&amp;tr=udp%3A%2F%2Fopen.demonii.com%3A1337&amp;tr=udp%3A%2F%2Ftracker.coppersurfer.tk%3A6969&amp;tr=udp%3A%2F%2Fexodus.desync.com%3A6969","seeders":13,"leechers":5,"uploader":"sujaidr","files":-1,"time":1331961992,"description":"a Bernardo Bertolucci film\n\nenjoy\n\nIF YOU LIKE THE MOVIE THEN DO BUY THE ORIGINAL BLURAY/DVD\n\ntorrent name\n\nThe Conformist (1970) 1080p BRrip_sujaidr\n\naka Il conformista (original title)\n\nvideo details\nID                               : 1\nFormat                           : AVC\nFormat/Info                      : Advanced Video Codec\nFormat profile                   : &lt;a class=&quot;__cf_email__&quot; href=&quot;/cdn-cgi/l/email-protection&quot; data-cfemail=&quot;a4eccdc3cce4e8908a95&quot;&gt;[email&amp;#160;protected]&lt;/a&gt;&lt;script cf-hash='f9e31' type=&quot;text/javascript&quot;&gt;\n/* &lt;![CDATA[ */!function(){try{var t=&quot;currentScript&quot;in document?document.currentScript:function(){for(var t=document.getElementsByTagName(&quot;script&quot;),e=t.length;e--;)if(t[e].getAttribute(&quot;cf-hash&quot;))return t[e]}();if(t&amp;&amp;t.previousSibling){var e,r,n,i,c=t.previousSibling,a=c.getAttribute(&quot;data-cfemail&quot;);if(a){for(e=&quot;&quot;,r=parseInt(a.substr(0,2),16),n=2;a.length-n;n+=2)i=parseInt(a.substr(n,2),16)^r,e+=String.fromCharCode(i);e=document.createTextNode(e),c.parentNode.replaceChild(e,c)}}}catch(u){}}();/* ]]&gt; */&lt;/script&gt;\nFormat settings, CABAC           : Yes\nFormat settings, ReFrames        : 4 frames\nMuxing mode                      : Header stripping\nCodec ID                         : V_MPEG4/ISO/AVC\nDuration                         : 1h 52mn\nBit rate                         : 1 726 Kbps\nWidth                            : 1 792 pixels\nHeight                           : 1 080 pixels\nDisplay aspect ratio             : 1.659\nFrame rate                       : 23.976 fps\nColor space                      : YUV\nChroma subsampling               : 4:2:0\nBit depth                        : 8 bits\nScan type                        : Progressive\nBits/(Pixel*Frame)               : 0.037\nStream size                      : 1.33 GiB (91%)\n\naudio details\nID                               : 2\nFormat                           : AC-3\nFormat/Info                      : Audio Coding 3\nMode extension                   : CM (complete main)\nMuxing mode                      : Header stripping\nCodec ID                         : A_AC3\nDuration                         : 1h 52mn\nBit rate mode                    : Constant\nBit rate                         : 128 Kbps\nChannel(s)                       : 2 channels\nChannel positions                : Front: L R\nSampling rate                    : 48.0 KHz\nBit depth                        : 16 bits\nCompression mode                 : Lossy\nStream size                      : 103 MiB (7%)\n\nlanguage                           Italian | French | Latin (only a few words)\nsource                             cinefile                      \n\nsubtitle                          English muxed\n\nSAMPLE                  :INCLUDED\n\nuploaded and encoded \n sujaidr\n\nPLOT:A weak-willed Italian man becomes a fascist flunky who goes abroad to arrange the assassination of his old teacher, now a political dissident.\n\nDirector:Bernardo Bertolucci\nStars:              Jean-Louis Trintignant, Stefania Sandrelli and Gastone Moschin\nimdb: &lt;a href=&quot; http://www.imdb.com/title/tt0065571/&quot; rel=&quot;nofollow&quot; target=&quot;_NEW&quot;&gt; http://www.imdb.com/title/tt0065571/&lt;/a&gt;\n\nscreenshots\n\n               &lt;a href=&quot; http://img528.imageshack.us/img528/7537/vlcsnap2012031708h06m42.png&quot; rel=&quot;nofollow&quot; target=&quot;_NEW&quot;&gt; http://img528.imageshack.us/img528/7537/vlcsnap2012031708h06m42.png&lt;/a&gt;\n\n               &lt;a href=&quot; http://img69.imageshack.us/img69/9308/vlcsnap2012031708h08m18.png&quot; rel=&quot;nofollow&quot; target=&quot;_NEW&quot;&gt; http://img69.imageshack.us/img69/9308/vlcsnap2012031708h08m18.png&lt;/a&gt;\n\n               &lt;a href=&quot; http://img811.imageshack.us/img811/1505/vlcsnap2012031708h10m09.png&quot; rel=&quot;nofollow&quot; target=&quot;_NEW&quot;&gt; http://img811.imageshack.us/img811/1505/vlcsnap2012031708h10m09.png&lt;/a&gt;\n\n               &lt;a href=&quot; http://img841.imageshack.us/img841/4615/vlcsnap2012031708h10m43.png&quot; rel=&quot;nofollow&quot; target=&quot;_NEW&quot;&gt; http://img841.imageshack.us/img841/4615/vlcsnap2012031708h10m43.png&lt;/a&gt;\n\nGOOGLE SUJAIDR FOR MY FACBOOK PAGE TO POST REQUESTS\n\nSEED BACK AND DO NOT STOP YOUR TORRENT AS SOON AS YOUR DOWNLOAD IS DONE\t","torrent":{"xt":"urn:btih:4a3eec5df5e99fad13e34e6604a992bdb2567b88","amp;dn":"The+Conformist+%281970%29+1080p+BRrip_sujaidr","amp;tr":["udp%3A%2F%2Ftracker.openbittorrent.com%3A80","udp%3A%2F%2Fopen.demonii.com%3A1337","udp%3A%2F%2Ftracker.coppersurfer.tk%3A6969","udp%3A%2F%2Fexodus.desync.com%3A6969"],"infoHash":"4a3eec5df5e99fad13e34e6604a992bdb2567b88","infoHashBuffer":{"type":"Buffer","data":[74,62,236,93,245,233,159,173,19,227,78,102,4,169,146,189,178,86,123,136]},"announce":[],"urlList":[]}}